HIERARCHY
ROOT Pelvis
{
	OFFSET 0.000000 0.000000 0.000000
	CHANNELS 6 Xposition Yposition Zposition Xrotation Yrotation Zrotation
	JOINT LeftUpLeg_virtual
	{
		OFFSET 0.000000 0.000000 0.000000
		CHANNELS 3 Xrotation Yrotation Zrotation
		JOINT LeftUpLeg
		{
			OFFSET 18.735201 -5.666702 -4.541200
			CHANNELS 3 Xrotation Yrotation Zrotation
			JOINT LeftLeg
			{
				OFFSET -0.021200 -31.938179 0.493100
				CHANNELS 3 Xrotation Yrotation Zrotation
				JOINT LeftFoot
				{
					OFFSET 0.021200 -31.938179 -4.336299
					CHANNELS 3 Xrotation Yrotation Zrotation
					JOINT LeftToeBase
					{
						OFFSET 0.943001 -26.722000 15.023500
						CHANNELS 3 Xrotation Yrotation Zrotation
						End Site
						{
							OFFSET 0 0 0
						}
					}
				}
			}
		}
	}
	JOINT RightUpLeg_virtual
	{
		OFFSET 0.000000 0.000000 0.000000
		CHANNELS 3 Xrotation Yrotation Zrotation
		JOINT RightUpLeg
		{
			OFFSET -18.735201 -5.666702 -4.541200
			CHANNELS 3 Xrotation Yrotation Zrotation
			JOINT RightLeg
			{
				OFFSET 0.018946 -31.938133 0.493100
				CHANNELS 3 Xrotation Yrotation Zrotation
				JOINT RightFoot
				{
					OFFSET -0.018946 -31.938126 -4.336299
					CHANNELS 3 Xrotation Yrotation Zrotation
					JOINT RightToeBase
					{
						OFFSET -0.943001 -26.722004 15.023500
						CHANNELS 3 Xrotation Yrotation Zrotation
						End Site
						{
							OFFSET 0 0 0
						}
					}
				}
			}
		}
	}
	JOINT Hips_virtual
	{
		OFFSET 0.000000 0.000000 0.000000
		CHANNELS 3 Xrotation Yrotation Zrotation
		JOINT Hips
		{
			OFFSET -0.000000 -0.000000 -0.000000
			CHANNELS 3 Xrotation Yrotation Zrotation
			JOINT Spine
			{
				OFFSET 0.000000 10.199997 -0.299500
				CHANNELS 3 Xrotation Yrotation Zrotation
				JOINT Spine1
				{
					OFFSET 0.000000 11.900002 -1.516600
					CHANNELS 3 Xrotation Yrotation Zrotation
					JOINT Spine2
					{
						OFFSET 0.000000 13.600006 -2.842500
						CHANNELS 3 Xrotation Yrotation Zrotation
						JOINT Neck_virtual
						{
							OFFSET 0.000000 0.000000 0.000000
							CHANNELS 3 Xrotation Yrotation Zrotation
							JOINT Neck
							{
								OFFSET 0.000000 9.624100 -2.890100
								CHANNELS 3 Xrotation Yrotation Zrotation
								JOINT Head
								{
									OFFSET 0.000000 14.068802 -1.351900
									CHANNELS 3 Xrotation Yrotation Zrotation
									End Site
									{
										OFFSET 0 0 0
									}
								}
							}
						}
						JOINT LeftShoulder_virtual
						{
							OFFSET 0.000000 0.000000 0.000000
							CHANNELS 3 Xrotation Yrotation Zrotation
							JOINT LeftShoulder
							{
								OFFSET 15.263000 10.923401 -0.547700
								CHANNELS 3 Xrotation Yrotation Zrotation
								JOINT LeftArm
								{
									OFFSET 25.438599 -2.830597 -13.032500
									CHANNELS 3 Xrotation Yrotation Zrotation
									JOINT LeftForeArm
									{
										OFFSET 29.960503 0.000000 0.000000
										CHANNELS 3 Xrotation Yrotation Zrotation
										JOINT LeftHand
										{
											OFFSET 27.849251 0.000000 0.000000
											CHANNELS 3 Xrotation Yrotation Zrotation
											End Site
											{
												OFFSET 0 0 0
											}
										}
									}
								}
							}
						}
						JOINT RightShoulder_virtual
						{
							OFFSET 0.000000 0.000000 0.000000
							CHANNELS 3 Xrotation Yrotation Zrotation
							JOINT RightShoulder
							{
								OFFSET -15.263000 10.923401 -0.547700
								CHANNELS 3 Xrotation Yrotation Zrotation
								JOINT RightArm
								{
									OFFSET -25.438599 -2.830597 -13.032500
									CHANNELS 3 Xrotation Yrotation Zrotation
									JOINT RightForeArm
									{
										OFFSET -29.960503 0.000000 0.000000
										CHANNELS 3 Xrotation Yrotation Zrotation
										JOINT RightHand
										{
											OFFSET -27.849251 0.000000 0.000000
											CHANNELS 3 Xrotation Yrotation Zrotation
											End Site
											{
												OFFSET 0 0 0
											}
										}
									}
								}
							}
						}
					}
				}
			}
		}
	}
}
MOTION
Frames: 10
Frame Time: 0.03333333
0.170710 92.861893 1.592371 0.000000 0.000000 0.000000 8.352452 -4.448735 -0.246231 -30.667939 10.183754 16.356526 39.174215 5.314664 -1.723876 -9.479595 6.098494 -4.230751 0.000000 0.000000 0.000000 7.294081 5.769869 8.346315 -18.910557 -5.390534 -4.674975 28.820369 -2.610785 -3.315473 -18.619437 -4.986683 3.838361 0.000000 0.000000 0.000000 -0.062788 0.102896 -0.332753 -0.355215 6.899042 -5.967916 5.822024 -0.085521 5.361381 1.549080 -0.157169 2.821664 0.000000 0.000000 0.000000 1.932161 0.245026 2.711072 -0.777951 -0.089091 1.245650 0.000000 0.000000 0.000000 3.625686 0.064114 2.029768 1.629690 -7.648391 1.070777 0.257941 3.546465 -59.124351 1.580295 -27.894103 -7.373978 0.000000 0.000000 0.000000 4.052180 -0.858282 2.891742 1.491793 4.623712 16.101532 2.119088 0.627827 55.601633 2.485954 33.348242 5.244842 0.000000 0.000000 0.000000 
0.409998 92.550713 1.301645 0.000000 0.000000 0.000000 8.447456 -6.337189 -0.313199 -30.642086 9.818992 16.074555 38.198810 5.557198 -1.764176 -10.384698 6.371576 -4.216257 0.000000 0.000000 0.000000 7.707880 5.927277 8.932168 -18.284051 -5.538778 -3.978493 27.584322 -2.925300 -4.136761 -19.703680 -4.909514 2.176564 0.000000 0.000000 0.000000 -0.976817 -0.042153 -1.066151 2.467220 8.311866 -6.316354 5.545834 -0.327954 5.475211 1.401655 -0.048079 3.291872 0.000000 0.000000 0.000000 1.897585 0.122535 2.691442 -0.681189 -0.096891 1.226195 0.000000 0.000000 0.000000 3.153481 -0.064431 2.349283 2.382471 -7.457966 1.201740 -0.100435 5.422535 -61.561280 1.579679 -26.003763 -8.568008 0.000000 0.000000 0.000000 3.705709 -0.826607 3.093426 1.531233 4.836044 17.208231 0.879864 -0.999375 54.687351 1.748826 33.059567 4.930507 0.000000 0.000000 0.000000 
-0.360868 93.176743 2.187197 0.000000 0.000000 0.000000 8.775629 -5.721432 -0.376387 -29.993399 10.051651 15.963884 37.703734 5.630276 -1.902535 -10.630915 6.560058 -4.449321 0.000000 0.000000 0.000000 7.740279 6.315104 9.113099 -18.107690 -5.446601 -3.722966 27.392942 -3.284765 -4.536117 -19.782900 -5.039740 1.193184 0.000000 0.000000 0.000000 0.436920 0.428653 -0.584512 2.503983 9.807018 -8.056782 6.581442 -0.847123 4.777707 0.952401 -0.333894 3.470165 0.000000 0.000000 0.000000 2.025426 -0.140333 2.737191 -0.619989 -0.215276 1.198311 0.000000 0.000000 0.000000 3.062257 -0.209934 2.551967 2.707243 -9.733759 1.388851 -1.478062 5.398875 -61.653297 1.365195 -25.367234 -8.828736 0.000000 0.000000 0.000000 3.642831 -1.022506 3.079733 2.039687 3.427359 16.905902 0.140317 -4.567868 55.276800 0.849391 28.488012 5.323333 0.000000 0.000000 0.000000 
-0.166266 93.334412 2.069975 0.000000 0.000000 0.000000 8.841760 -5.977619 -0.480530 -29.859801 10.044031 15.820053 38.164266 5.401568 -1.924803 -10.357819 6.317930 -4.648089 0.000000 0.000000 0.000000 7.898657 6.769544 9.894694 -17.686452 -5.485201 -2.742359 27.707818 -3.471227 -4.961239 -19.716883 -4.967036 0.376896 0.000000 0.000000 0.000000 -0.320581 0.535547 -0.965240 3.260158 8.074329 -7.085029 5.700950 -1.151267 5.580432 1.150889 -0.024629 3.344953 0.000000 0.000000 0.000000 1.892331 -0.106339 2.747059 -0.633981 -0.243384 1.138881 0.000000 0.000000 0.000000 3.290828 -0.452922 2.569321 2.446504 -9.354298 1.862632 -1.560870 6.971639 -63.057843 0.866364 -24.490909 -9.876418 0.000000 0.000000 0.000000 3.932557 -0.839066 3.146730 2.085696 3.504697 17.898031 1.016797 -4.522724 55.110242 1.349065 28.337915 5.159765 0.000000 0.000000 0.000000 
-0.098579 93.632553 1.488806 0.000000 0.000000 0.000000 8.172552 -7.773352 -0.872642 -30.442273 9.583196 15.125934 37.523010 5.688451 -1.996851 -10.921356 6.649828 -4.610297 0.000000 0.000000 0.000000 8.324700 7.875651 9.762840 -16.951713 -5.212353 -2.684078 27.353304 -3.252421 -4.757085 -20.145561 -4.876025 0.889813 0.000000 0.000000 0.000000 1.410698 0.343598 -0.896420 2.386573 4.958361 -5.324449 5.924932 -0.571191 4.713511 0.369421 0.090339 3.397872 0.000000 0.000000 0.000000 1.929378 0.177647 2.686973 -0.704714 -0.102345 1.079647 0.000000 0.000000 0.000000 3.403045 -0.424503 2.744634 2.535504 -9.366158 1.513037 0.169877 6.065741 -62.530061 1.982345 -24.164093 -9.753158 0.000000 0.000000 0.000000 3.434567 -0.656431 3.291863 1.906577 4.989840 17.653083 -1.281415 -5.651001 54.974229 0.271825 28.356811 5.470285 0.000000 0.000000 0.000000 
0.817225 93.347801 1.938166 0.000000 0.000000 0.000000 7.883712 -7.294482 -0.995101 -30.718834 9.651683 15.066427 38.078216 5.692058 -1.914932 -10.309622 6.613958 -4.478698 0.000000 0.000000 0.000000 8.598449 8.313345 9.842452 -16.634775 -5.138653 -2.571303 25.779665 -2.945155 -4.762108 -21.449562 -4.656744 1.059315 0.000000 0.000000 0.000000 -0.884117 -1.389519 -0.481703 0.906836 8.856305 -4.520158 5.480983 -1.564583 4.381133 1.121154 0.174308 3.234853 0.000000 0.000000 0.000000 2.165209 0.206093 2.608556 -0.381604 -0.107127 1.029411 0.000000 0.000000 0.000000 3.606760 -0.580169 2.657430 2.817398 -9.744215 1.950972 -1.254592 7.126811 -62.882089 1.693323 -24.977290 -9.997806 0.000000 0.000000 0.000000 3.652228 -0.807382 3.119332 2.333178 3.916906 16.827650 -1.215207 -5.511640 55.965815 0.328238 27.781496 5.953460 0.000000 0.000000 0.000000 
-0.720998 92.880669 1.887180 0.000000 0.000000 0.000000 7.814331 -6.788841 -0.757136 -30.976127 9.670809 15.470430 38.628306 5.732711 -2.309944 -9.897485 6.836284 -5.075245 0.000000 0.000000 0.000000 9.009214 8.135919 9.868922 -15.918029 -5.184774 -2.410676 25.307413 -2.890332 -4.572398 -21.787419 -4.730918 1.367308 0.000000 0.000000 0.000000 -0.263762 -0.321303 -0.546212 0.121315 8.249152 -5.636980 5.128691 -1.301976 4.558015 1.369700 -0.438735 3.300568 0.000000 0.000000 0.000000 2.248068 0.176651 2.641925 -0.461577 -0.138419 0.946172 0.000000 0.000000 0.000000 3.693136 -0.594246 2.789203 2.839118 -10.820706 2.035832 -1.952474 7.403208 -63.573229 0.882212 -25.579458 -11.143761 0.000000 0.000000 0.000000 3.448906 -0.738771 3.207691 2.272932 3.532754 17.104491 -1.938736 -5.987624 56.390896 -0.234009 27.519665 6.277164 0.000000 0.000000 0.000000 
-0.320945 93.255997 1.125328 0.000000 0.000000 0.000000 7.661670 -6.690286 -0.571776 -31.623315 9.612149 15.885673 39.060800 6.073717 -2.129868 -9.613121 7.100132 -4.576911 0.000000 0.000000 0.000000 8.534496 7.238285 9.685428 -16.698335 -5.385419 -2.745510 25.430041 -3.113564 -4.635895 -21.792314 -4.872989 1.131977 0.000000 0.000000 0.000000 0.272268 -1.063188 -0.785209 1.951541 10.456990 -6.809151 5.287802 -0.975272 5.276189 0.642425 -0.186953 3.354717 0.000000 0.000000 0.000000 2.533606 0.395583 2.794120 -0.389406 -0.143963 1.063629 0.000000 0.000000 0.000000 3.993782 -0.751195 2.915256 2.851887 -10.572962 2.421715 -1.215319 9.613688 -63.367695 0.442015 -24.531352 -10.987642 0.000000 0.000000 0.000000 4.243304 -0.588200 3.120380 2.392572 3.931630 17.360416 0.037684 -4.598378 56.212259 0.655770 28.460451 5.869708 0.000000 0.000000 0.000000 
-0.424693 93.394302 1.099632 0.000000 0.000000 0.000000 7.729024 -6.133528 -0.532351 -31.627707 9.745526 16.033111 39.384568 5.965373 -2.014382 -9.499609 6.922768 -4.462039 0.000000 0.000000 0.000000 8.530174 7.599144 9.664346 -16.504189 -5.267426 -2.633287 25.084819 -3.048503 -4.623590 -22.011362 -4.823536 1.158728 0.000000 0.000000 0.000000 1.022541 0.209850 -0.436948 1.453991 10.984284 -7.330495 5.014172 -1.252246 5.009017 0.506235 -0.245390 3.491551 0.000000 0.000000 0.000000 2.400168 0.280588 2.841745 -0.480797 -0.189523 1.032126 0.000000 0.000000 0.000000 3.795484 -0.848352 2.861413 2.814526 -10.919168 2.202272 -2.471096 10.418866 -62.326644 0.028991 -23.588087 -11.044272 0.000000 0.000000 0.000000 3.931949 -0.776733 3.222228 2.557898 3.492819 17.169352 0.663010 -5.926038 55.483566 0.849793 26.355304 5.485200 0.000000 0.000000 0.000000 
-0.470703 93.088669 1.004066 0.000000 0.000000 0.000000 7.379112 -5.607671 -0.778810 -32.118384 9.862219 15.886439 38.896824 6.032386 -1.940494 -9.811352 6.978555 -4.336265 0.000000 0.000000 0.000000 8.809061 7.918423 9.832979 -16.142052 -5.255300 -2.414686 25.951932 -2.974714 -4.457775 -21.340812 -4.795808 1.482216 0.000000 0.000000 0.000000 1.194052 0.499949 -0.111278 2.061624 10.384194 -6.930889 5.135520 -1.234997 4.943258 0.504827 -0.277795 3.479177 0.000000 0.000000 0.000000 2.539095 0.356798 2.967103 -0.434438 -0.207812 1.037403 0.000000 0.000000 0.000000 3.655881 -0.917103 2.817920 2.661070 -11.016375 1.342269 -2.636418 10.628175 -62.214465 -0.545809 -24.694417 -11.400708 0.000000 0.000000 0.000000 4.219962 -0.642388 3.322677 2.697522 3.469120 16.892156 0.537626 -4.763918 55.931941 1.049529 27.711283 5.589253 0.000000 0.000000 0.000000 
